# xmcd
# 
# Track frame offsets:
#     182
#     5932
#     28115
#     49150
#     74420
#     93740
#     108962
#     136755
#     157682
#     177065
#     192812
#     221055
# 
# Disc length: 3153
# 
# Revision: 7
# Processed by: cddbd v1.5.2PL0 Copyright (c) Steve Scherf et al.
# Submitted via: BonkEnc v1.0.8
# 
DISCID=a20c4f0c
DTITLE=布袋寅泰 - GUITARHYTHM II [CD1)
DYEAR=1991
DGENRE=Rock
TTITLE0=GUITARHYTHM REPRISE
TTITLE1=BEAT EMOTION
TTITLE2=PRISONER
TTITLE3=SLOW MOTION
TTITLE4=SPHINX
TTITLE5=MERMAID'S DREAM
TTITLE6=PARADISE
TTITLE7=DEVIL'S SUGAR
TTITLE8=DRIVIN' TO YOUR HEART TONIGHT
TTITLE9=ANGEL WALTZ
TTITLE10=YOU
TTITLE11=GUITAR LOVES YOU
EXTD=YEAR: 1991
EXTT0=
EXTT1=
EXTT2=
EXTT3=
EXTT4=
EXTT5=
EXTT6=
EXTT7=
EXTT8=
EXTT9=
EXTT10=
EXTT11=
PLAYORDER=
